<?xml version="1.0" encoding="UTF-8" standalone="no"?>
<!-- Generator: Adobe Illustrator 19.2.1, SVG Export Plug-In . SVG Version: 6.00 Build 0)  -->

<svg
   xmlns:dc="http://purl.org/dc/elements/1.1/"
   xmlns:cc="http://creativecommons.org/ns#"
   xmlns:rdf="http://www.w3.org/1999/02/22-rdf-syntax-ns#"
   xmlns:svg="http://www.w3.org/2000/svg"
   xmlns="http://www.w3.org/2000/svg"
   xmlns:sodipodi="http://sodipodi.sourceforge.net/DTD/sodipodi-0.dtd"
   xmlns:inkscape="http://www.inkscape.org/namespaces/inkscape"
   version="1.1"
   x="0px"
   y="0px"
   width="24px"
   height="24px"
   viewBox="0 0 24 24"
   enable-background="new 0 0 24 24"
   xml:space="preserve"
   id="svg2"
   inkscape:version="0.48.5 r10040"
   sodipodi:docname="icon-data-sources.svg"><metadata
   id="metadata16"><rdf:RDF><cc:Work
       rdf:about=""><dc:format>image/svg+xml</dc:format><dc:type
         rdf:resource="http://purl.org/dc/dcmitype/StillImage" /></cc:Work></rdf:RDF></metadata><defs
   id="defs14" /><sodipodi:namedview
   pagecolor="#ffffff"
   bordercolor="#666666"
   borderopacity="1"
   objecttolerance="10"
   gridtolerance="10"
   guidetolerance="10"
   inkscape:pageopacity="0"
   inkscape:pageshadow="2"
   inkscape:window-width="640"
   inkscape:window-height="480"
   id="namedview12"
   showgrid="false"
   inkscape:zoom="9.8333333"
   inkscape:cx="12"
   inkscape:cy="12"
   inkscape:window-x="1672"
   inkscape:window-y="1962"
   inkscape:window-maximized="0"
   inkscape:current-layer="svg2" />
<g
   id="Filled_Icons_1_"
   style="fill:#ffffff">
	<g
   id="Filled_Icons"
   style="fill:#ffffff">
		<path
   d="M23.5,0h-23C0.224,0,0,0.224,0,0.5v23C0,23.775,0.224,24,0.5,24h23c0.275,0,0.5-0.225,0.5-0.5v-23    C24,0.224,23.775,0,23.5,0z M14.924,12.782L8.707,19H11.5c0.276,0,0.5,0.224,0.5,0.5S11.776,20,11.5,20h-4    C7.224,20,7,19.776,7,19.5v-4C7,15.224,7.224,15,7.5,15S8,15.224,8,15.5v2.793l6.217-6.218c0.195-0.195,0.512-0.195,0.707,0    C15.119,12.271,15.119,12.587,14.924,12.782z M16.5,8.5C16.5,8.776,16.276,9,16,9s-0.5-0.224-0.5-0.5V5.707l-6.217,6.217    c-0.195,0.195-0.512,0.195-0.707,0c-0.195-0.195-0.195-0.512,0-0.707L14.793,5H12c-0.276,0-0.5-0.224-0.5-0.5S11.724,4,12,4h4    c0.276,0,0.5,0.224,0.5,0.5V8.5z"
   id="path6"
   style="fill:#ffffff" />
	</g>
	<g
   id="New_icons"
   style="fill:#ffffff">
	</g>
</g>
<g
   id="Invisible_Shape">
	<rect
   fill="none"
   width="24"
   height="24"
   id="rect10" />
</g>
</svg>