<?xml version="1.0" encoding="UTF-8" standalone="no"?>
<!-- Generator: Adobe Illustrator 19.2.1, SVG Export Plug-In . SVG Version: 6.00 Build 0)  -->

<svg
   xmlns:dc="http://purl.org/dc/elements/1.1/"
   xmlns:cc="http://creativecommons.org/ns#"
   xmlns:rdf="http://www.w3.org/1999/02/22-rdf-syntax-ns#"
   xmlns:svg="http://www.w3.org/2000/svg"
   xmlns="http://www.w3.org/2000/svg"
   xmlns:sodipodi="http://sodipodi.sourceforge.net/DTD/sodipodi-0.dtd"
   xmlns:inkscape="http://www.inkscape.org/namespaces/inkscape"
   version="1.1"
   x="0px"
   y="0px"
   width="24px"
   height="24px"
   viewBox="0 0 24 24"
   enable-background="new 0 0 24 24"
   xml:space="preserve"
   id="svg2"
   inkscape:version="0.48.5 r10040"
   sodipodi:docname="icon-documents.svg"><metadata
   id="metadata18"><rdf:RDF><cc:Work
       rdf:about=""><dc:format>image/svg+xml</dc:format><dc:type
         rdf:resource="http://purl.org/dc/dcmitype/StillImage" /></cc:Work></rdf:RDF></metadata><defs
   id="defs16">
	
</defs><sodipodi:namedview
   pagecolor="#ffffff"
   bordercolor="#666666"
   borderopacity="1"
   objecttolerance="10"
   gridtolerance="10"
   guidetolerance="10"
   inkscape:pageopacity="0"
   inkscape:pageshadow="2"
   inkscape:window-width="640"
   inkscape:window-height="480"
   id="namedview14"
   showgrid="false"
   inkscape:zoom="9.8333333"
   inkscape:cx="12"
   inkscape:cy="12"
   inkscape:window-x="1562"
   inkscape:window-y="1880"
   inkscape:window-maximized="0"
   inkscape:current-layer="svg2" />
<g
   id="g5"
   style="fill:#ffffff">
		<path
   inkscape:connector-curvature="0"
   id="path7"
   d="M 17.5,11 C 13.916,11 11,13.915 11,17.5 11,21.084 13.916,24 17.5,24 21.084,24 24,21.084 24,17.5 24,13.915 21.084,11 17.5,11 z M 18,21 c 0,0.276 -0.224,0.5 -0.5,0.5 C 17.224,21.5 17,21.276 17,21 v -4 c 0,-0.276 0.224,-0.5 0.5,-0.5 0.276,0 0.5,0.224 0.5,0.5 v 4 z m -0.5,-5.5 c -0.414,0 -0.75,-0.336 -0.75,-0.75 0,-0.414 0.336,-0.75 0.75,-0.75 0.414,0 0.75,0.336 0.75,0.75 0,0.414 -0.336,0.75 -0.75,0.75 z"
   style="fill:#ffffff" />
		<path
   inkscape:connector-curvature="0"
   id="path9"
   d="m 10,17.5 c 0,-3.967 3.098,-7.215 7,-7.474 V 5.5 C 17,5.367 16.947,5.24 16.854,5.147 l -5,-5 C 11.76,0.053 11.632,0 11.5,0 H 0.5 C 0.224,0 0,0.224 0,0.5 v 21 C 0,21.776 0.224,22 0.5,22 H 11.515 C 10.568,20.745 10,19.19 10,17.5 z M 11,1 16,6 H 11 V 1 z M 3.5,6 H 8 C 8.276,6 8.5,6.224 8.5,6.5 8.5,6.776 8.276,7 8,7 H 3.5 C 3.224,7 3,6.776 3,6.5 3,6.224 3.224,6 3.5,6 z m 0,3 h 8 C 11.776,9 12,9.224 12,9.5 12,9.776 11.776,10 11.5,10 h -8 C 3.224,10 3,9.776 3,9.5 3,9.224 3.224,9 3.5,9 z m 5,7 h -5 C 3.224,16 3,15.776 3,15.5 3,15.224 3.224,15 3.5,15 h 5 C 8.776,15 9,15.224 9,15.5 9,15.776 8.776,16 8.5,16 z m 1,-3 h -6 C 3.224,13 3,12.776 3,12.5 3,12.224 3.224,12 3.5,12 h 6 C 9.776,12 10,12.224 10,12.5 10,12.776 9.776,13 9.5,13 z"
   style="fill:#ffffff" />
	</g>
<g
   id="Invisible_Shape">
	<rect
   fill="none"
   width="24"
   height="24"
   id="rect12" />
</g>
</svg>