<?xml version="1.0" encoding="UTF-8" standalone="no"?>
<!-- Generator: Adobe Illustrator 19.2.1, SVG Export Plug-In . SVG Version: 6.00 Build 0)  -->

<svg
   xmlns:dc="http://purl.org/dc/elements/1.1/"
   xmlns:cc="http://creativecommons.org/ns#"
   xmlns:rdf="http://www.w3.org/1999/02/22-rdf-syntax-ns#"
   xmlns:svg="http://www.w3.org/2000/svg"
   xmlns="http://www.w3.org/2000/svg"
   xmlns:sodipodi="http://sodipodi.sourceforge.net/DTD/sodipodi-0.dtd"
   xmlns:inkscape="http://www.inkscape.org/namespaces/inkscape"
   version="1.1"
   x="0px"
   y="0px"
   width="24px"
   height="24px"
   viewBox="0 0 24 24"
   enable-background="new 0 0 24 24"
   xml:space="preserve"
   id="svg2"
   inkscape:version="0.48.5 r10040"
   sodipodi:docname="icon-database-config.svg"><metadata
   id="metadata26"><rdf:RDF><cc:Work
       rdf:about=""><dc:format>image/svg+xml</dc:format><dc:type
         rdf:resource="http://purl.org/dc/dcmitype/StillImage" /></cc:Work></rdf:RDF></metadata><defs
   id="defs24">
	
	

		
	</defs><sodipodi:namedview
   pagecolor="#ffffff"
   bordercolor="#666666"
   borderopacity="1"
   objecttolerance="10"
   gridtolerance="10"
   guidetolerance="10"
   inkscape:pageopacity="0"
   inkscape:pageshadow="2"
   inkscape:window-width="640"
   inkscape:window-height="480"
   id="namedview22"
   showgrid="false"
   inkscape:zoom="9.8333333"
   inkscape:cx="12"
   inkscape:cy="12"
   inkscape:window-x="2132"
   inkscape:window-y="1850"
   inkscape:window-maximized="0"
   inkscape:current-layer="g6" />
<g
   id="g6">
			<path
   d="M 10,0 C 4.393,0 0,1.977 0,4.5 0,6.085 4.461,8 10,8 14.579,8 18.625,6.738 20,5.422 V 4.5 C 20,1.977 15.607,0 10,0 z"
   id="path8"
   inkscape:connector-curvature="0"
   style="fill:#ffffff" />
			<path
   d="M 10.2,19.813 C 9.848,19.203 9.978,18.447 10.468,17.98 10.312,17.984 10.155,18 10,18 6.035,18 1.862,16.992 0,15.362 V 17.5 c 0,2.722 5.11,4.826 11.424,4.433 L 10.2,19.813 z"
   id="path10"
   inkscape:connector-curvature="0"
   style="fill:#ffffff" />
			<path
   d="m 10.052,16.286 c -0.103,-0.37 -0.048,-0.788 0.152,-1.133 l 0.975,-1.687 C 10.784,13.486 10.391,13.5 10,13.5 6.035,13.5 1.862,12.492 0,10.862 V 13.5 c 0,1.668 4.877,3.628 10.472,3.489 -0.201,-0.191 -0.351,-0.433 -0.42,-0.703 z"
   id="path12"
   inkscape:connector-curvature="0"
   style="fill:#ffffff" />
			<path
   d="m 13.885,11.779 0.365,0.211 c 0.044,-0.025 0.087,-0.05 0.131,-0.074 V 11.5 c 0,-0.827 0.673,-1.5 1.5,-1.5 h 3.265 c 0.216,0 0.42,0.048 0.605,0.13 C 19.839,10.061 19.927,9.991 20,9.921 V 6.669 C 17.864,8.106 13.783,9 10,9 6.035,9 1.862,7.992 0,6.362 V 9 c 0,1.585 4.46,3.5 10,3.5 0.606,0 1.197,-0.029 1.778,-0.071 0.506,-0.869 1.449,-1.028 2.107,-0.65 z"
   id="path14"
   inkscape:connector-curvature="0"
   style="fill:#ffffff" />
			<path
   d="m 23.75,18.631 -0.893,-0.516 c 0.055,-0.439 0.05,-0.846 0,-1.262 l 0.891,-0.515 c 0.239,-0.138 0.321,-0.444 0.184,-0.683 L 22.299,12.827 C 22.17,12.602 21.868,12.497 21.615,12.644 L 20.728,13.16 C 20.401,12.919 20.035,12.707 19.645,12.536 V 11.5 c 0,-0.276 -0.224,-0.5 -0.5,-0.5 H 15.88 c -0.276,0 -0.5,0.224 -0.5,0.5 v 1.036 c -0.33,0.144 -0.719,0.349 -1.098,0.627 l -0.898,-0.518 c -0.24,-0.139 -0.543,-0.055 -0.682,0.183 l -1.635,2.828 c -0.136,0.234 -0.058,0.543 0.184,0.683 l 0.891,0.515 c -0.053,0.418 -0.054,0.838 -10e-4,1.262 l -0.892,0.516 c -0.239,0.139 -0.321,0.444 -0.184,0.683 l 1.633,2.828 c 0.138,0.238 0.443,0.319 0.682,0.184 l 0.902,-0.518 c 0.377,0.276 0.767,0.482 1.098,0.626 v 1.035 c 0,0.277 0.224,0.5 0.5,0.5 h 3.265 c 0.276,0 0.5,-0.223 0.5,-0.5 v -1.035 c 0.39,-0.173 0.757,-0.385 1.083,-0.625 l 0.891,0.515 c 0.24,0.141 0.546,0.055 0.684,-0.182 l 1.631,-2.828 c 0.132,-0.23 0.064,-0.542 -0.184,-0.684 z m -6.251,1.03 c -1.202,0 -2.177,-0.974 -2.177,-2.177 0,-1.201 0.975,-2.176 2.177,-2.176 1.202,0 2.176,0.975 2.176,2.176 0,1.204 -0.974,2.177 -2.176,2.177 z"
   id="path16"
   inkscape:connector-curvature="0"
   style="fill:#ffffff" />
		</g><g
   id="New_icons">
	</g>
<g
   id="Invisible_Shape">
	<rect
   fill="none"
   width="24"
   height="24"
   id="rect20" />
</g>
</svg>