<?xml version="1.0" encoding="UTF-8" standalone="no"?>
<!-- Generator: Adobe Illustrator 19.2.1, SVG Export Plug-In . SVG Version: 6.00 Build 0)  -->

<svg
   xmlns:dc="http://purl.org/dc/elements/1.1/"
   xmlns:cc="http://creativecommons.org/ns#"
   xmlns:rdf="http://www.w3.org/1999/02/22-rdf-syntax-ns#"
   xmlns:svg="http://www.w3.org/2000/svg"
   xmlns="http://www.w3.org/2000/svg"
   xmlns:sodipodi="http://sodipodi.sourceforge.net/DTD/sodipodi-0.dtd"
   xmlns:inkscape="http://www.inkscape.org/namespaces/inkscape"
   version="1.1"
   x="0px"
   y="0px"
   width="24px"
   height="24px"
   viewBox="0 0 24 24"
   enable-background="new 0 0 24 24"
   xml:space="preserve"
   id="svg2"
   inkscape:version="0.48.5 r10040"
   sodipodi:docname="icon-server-status.svg"><metadata
   id="metadata30"><rdf:RDF><cc:Work
       rdf:about=""><dc:format>image/svg+xml</dc:format><dc:type
         rdf:resource="http://purl.org/dc/dcmitype/StillImage" /></cc:Work></rdf:RDF></metadata><defs
   id="defs28" /><sodipodi:namedview
   pagecolor="#ffffff"
   bordercolor="#666666"
   borderopacity="1"
   objecttolerance="10"
   gridtolerance="10"
   guidetolerance="10"
   inkscape:pageopacity="0"
   inkscape:pageshadow="2"
   inkscape:window-width="640"
   inkscape:window-height="480"
   id="namedview26"
   showgrid="false"
   inkscape:zoom="9.8333333"
   inkscape:cx="12"
   inkscape:cy="12"
   inkscape:window-x="1685"
   inkscape:window-y="1907"
   inkscape:window-maximized="0"
   inkscape:current-layer="svg2" />
<g
   id="Filled_Icons_1_"
   style="fill:#ffffff">
	<g
   id="Filled_Icons"
   style="fill:#ffffff">
		<g
   id="g6"
   style="fill:#ffffff">
			<circle
   cx="4"
   cy="4"
   r="0.5"
   id="circle8"
   style="fill:#ffffff" />
			<circle
   cx="4"
   cy="18"
   r="0.5"
   id="circle10"
   style="fill:#ffffff" />
			<circle
   cx="4"
   cy="11"
   r="0.5"
   id="circle12"
   style="fill:#ffffff" />
			<g
   id="g14"
   style="fill:#ffffff">
				<path
   d="M22,7c0,0,0-5.481,0-5.5C22,0.673,21.327,0,20.5,0h-19C0.673,0,0,0.673,0,1.5C0,1.513,0,7,0,7H22z M8,3h10      c0.276,0,0.5,0.224,0.5,0.5S18.276,4,18,4H8C7.724,4,7.5,3.776,7.5,3.5S7.724,3,8,3z M8,5h10c0.276,0,0.5,0.224,0.5,0.5      S18.276,6,18,6H8C7.724,6,7.5,5.776,7.5,5.5S7.724,5,8,5z M4,2.5c0.827,0,1.5,0.673,1.5,1.5S4.827,5.5,4,5.5S2.5,4.827,2.5,4      S3.173,2.5,4,2.5z"
   id="path16"
   style="fill:#ffffff" />
				<path
   d="M0,15c0,0,0,5.48,0,5.5C0,21.327,0.673,22,1.5,22h19c0.827,0,1.5-0.673,1.5-1.5c0-0.013,0-5.5,0-5.5H0z M4,19.5      c-0.827,0-1.5-0.673-1.5-1.5s0.673-1.5,1.5-1.5s1.5,0.673,1.5,1.5S4.827,19.5,4,19.5z M18,20H8c-0.276,0-0.5-0.224-0.5-0.5      S7.724,19,8,19h10c0.276,0,0.5,0.224,0.5,0.5S18.276,20,18,20z M18,18H8c-0.276,0-0.5-0.224-0.5-0.5S7.724,17,8,17h10      c0.276,0,0.5,0.224,0.5,0.5S18.276,18,18,18z"
   id="path18"
   style="fill:#ffffff" />
				<path
   d="M22,8H0v6h22C22,14,22,8.001,22,8z M4,12.5c-0.827,0-1.5-0.673-1.5-1.5S3.173,9.5,4,9.5s1.5,0.673,1.5,1.5      S4.827,12.5,4,12.5z M18,13H8c-0.276,0-0.5-0.224-0.5-0.5S7.724,12,8,12h10c0.276,0,0.5,0.224,0.5,0.5S18.276,13,18,13z M18,11      H8c-0.276,0-0.5-0.224-0.5-0.5S7.724,10,8,10h10c0.276,0,0.5,0.224,0.5,0.5S18.276,11,18,11z"
   id="path20"
   style="fill:#ffffff" />
			</g>
		</g>
	</g>
	<g
   id="New_icons"
   style="fill:#ffffff">
	</g>
</g>
<g
   id="Invisible_Shape">
	<rect
   fill="none"
   width="24"
   height="24"
   id="rect24" />
</g>
</svg>